<svg width="268" height="69" viewBox="0 0 268 69" fill="none" xmlns="http://www.w3.org/2000/svg">
<rect x="0.5" y="0.5" width="267" height="68" rx="7.5" fill="#2C2F33"/>
<path d="M48.8915 41.4294V45H37.0659V41.4294H48.8915ZM38.5613 22.7832V45H33.9836V22.7832H38.5613ZM47.3503 31.8317V35.3107H37.0659V31.8317H47.3503ZM48.8762 22.7832V26.369H37.0659V22.7832H48.8762ZM60.595 26.5826L54.5525 45H49.6849L57.9399 22.7832H61.0375L60.595 26.5826ZM65.6151 45L59.5574 26.5826L59.0691 22.7832H62.1971L70.4979 45H65.6151ZM65.3405 36.7297V40.3156H53.6064V36.7297H65.3405ZM84.124 39.1864C84.124 38.7897 84.063 38.4336 83.9409 38.1183C83.829 37.7928 83.6154 37.4978 83.3 37.2333C82.9847 36.9586 82.5422 36.689 81.9725 36.4246C81.4029 36.1601 80.6654 35.8854 79.76 35.6006C78.7529 35.2751 77.7967 34.9089 76.8914 34.502C75.9962 34.0951 75.2027 33.622 74.511 33.0829C73.8294 32.5336 73.2903 31.8978 72.8936 31.1755C72.507 30.4533 72.3137 29.6141 72.3137 28.6578C72.3137 27.7321 72.5172 26.8929 72.9241 26.1401C73.331 25.3772 73.9006 24.7262 74.6331 24.187C75.3655 23.6377 76.2301 23.2155 77.2271 22.9205C78.2341 22.6255 79.3378 22.478 80.5382 22.478C82.176 22.478 83.6052 22.773 84.8259 23.363C86.0466 23.953 86.9927 24.7618 87.6641 25.7892C88.3456 26.8166 88.6864 27.9915 88.6864 29.314H84.1393C84.1393 28.6629 84.002 28.0933 83.7273 27.605C83.4628 27.1065 83.0559 26.7149 82.5066 26.4301C81.9674 26.1452 81.2859 26.0028 80.4619 26.0028C79.6685 26.0028 79.0072 26.1249 78.4783 26.369C77.9493 26.603 77.5526 26.9234 77.2881 27.3303C77.0236 27.7271 76.8914 28.1746 76.8914 28.6731C76.8914 29.0495 76.9829 29.3903 77.166 29.6954C77.3593 30.0006 77.6441 30.2854 78.0205 30.5499C78.3969 30.8144 78.8597 31.0636 79.4091 31.2976C79.9584 31.5316 80.5942 31.7605 81.3164 31.9843C82.5269 32.3505 83.59 32.7625 84.5055 33.2202C85.4312 33.678 86.2043 34.1917 86.8248 34.7614C87.4454 35.331 87.9133 35.977 88.2286 36.6992C88.544 37.4215 88.7017 38.2404 88.7017 39.1559C88.7017 40.1223 88.5135 40.9869 88.1371 41.7499C87.7607 42.5128 87.2165 43.1588 86.5044 43.6877C85.7923 44.2167 84.9429 44.6185 83.9562 44.8932C82.9694 45.1678 81.8657 45.3052 80.645 45.3052C79.5464 45.3052 78.463 45.1628 77.3949 44.8779C76.3268 44.5829 75.3553 44.1404 74.4805 43.5504C73.6158 42.9604 72.9241 42.2076 72.4053 41.2921C71.8865 40.3766 71.6271 39.2932 71.6271 38.042H76.22C76.22 38.7337 76.3268 39.3186 76.5404 39.7968C76.754 40.2749 77.0541 40.6614 77.4407 40.9564C77.8374 41.2514 78.3053 41.465 78.8445 41.5973C79.3938 41.7295 79.994 41.7957 80.645 41.7957C81.4385 41.7957 82.0895 41.6838 82.5981 41.46C83.1169 41.2362 83.4984 40.9259 83.7426 40.5292C83.9969 40.1324 84.124 39.6849 84.124 39.1864ZM94.8662 22.7832L99.5049 32.915L104.144 22.7832H109.133L101.824 36.9128V45H97.1855V36.9128L89.8613 22.7832H94.8662Z" fill="#FDE047"/>
<path d="M115.74 22.7832V45H111.163V22.7832H115.74ZM129.046 22.7832L120.242 33.7543L115.16 39.2169L114.336 34.8834L117.77 30.1837L123.431 22.7832H129.046ZM123.843 45L117.297 34.7308L120.684 31.8927L129.26 45H123.843ZM140.063 26.5826L134.02 45H129.153L137.408 22.7832H140.505L140.063 26.5826ZM145.083 45L139.025 26.5826L138.537 22.7832H141.665L149.966 45H145.083ZM144.808 36.7297V40.3156H133.074V36.7297H144.808ZM170.107 22.7832V45H165.53L156.603 30.1074V45H152.026V22.7832H156.603L165.545 37.691V22.7832H170.107ZM182.787 35.2496H177.081L177.05 32.1063H181.841C182.686 32.1063 183.377 31.9995 183.917 31.7859C184.456 31.5621 184.857 31.2417 185.122 30.8246C185.397 30.3973 185.534 29.8785 185.534 29.2682C185.534 28.5765 185.402 28.017 185.137 27.5897C184.883 27.1625 184.481 26.8522 183.932 26.6589C183.393 26.4657 182.696 26.369 181.841 26.369H178.667V45H174.09V22.7832H181.841C183.133 22.7832 184.288 22.9053 185.305 23.1494C186.332 23.3936 187.202 23.7649 187.914 24.2633C188.626 24.7618 189.171 25.3925 189.547 26.1554C189.923 26.9082 190.112 27.8033 190.112 28.8409C190.112 29.7565 189.903 30.6008 189.486 31.3739C189.079 32.147 188.433 32.7777 187.548 33.266C186.673 33.7543 185.529 34.0238 184.115 34.0747L182.787 35.2496ZM182.589 45H175.829L177.615 41.4294H182.589C183.393 41.4294 184.049 41.3023 184.557 41.048C185.066 40.7835 185.442 40.4274 185.687 39.9799C185.931 39.5323 186.053 39.0186 186.053 38.4387C186.053 37.7877 185.941 37.2231 185.717 36.745C185.503 36.2669 185.158 35.9007 184.679 35.6464C184.201 35.3819 183.571 35.2496 182.787 35.2496H178.378L178.408 32.1063H183.901L184.954 33.3423C186.307 33.3219 187.396 33.561 188.219 34.0594C189.054 34.5477 189.659 35.1835 190.035 35.9668C190.422 36.7501 190.615 37.5893 190.615 38.4845C190.615 39.9087 190.305 41.109 189.684 42.0856C189.064 43.052 188.153 43.7793 186.953 44.2676C185.763 44.7559 184.308 45 182.589 45ZM203.082 26.5826L197.039 45H192.172L200.427 22.7832H203.524L203.082 26.5826ZM208.102 45L202.044 26.5826L201.556 22.7832H204.684L212.984 45H208.102ZM207.827 36.7297V40.3156H196.093V36.7297H207.827ZM233.126 22.7832V45H228.548L219.622 30.1074V45H215.044V22.7832H219.622L228.564 37.691V22.7832H233.126Z" fill="white"/>
<rect x="0.5" y="0.5" width="267" height="68" rx="7.5" stroke="#2C2F33"/>
</svg>
